<svg width="60" height="60" viewBox="0 0 60 60" fill="none" xmlns="http://www.w3.org/2000/svg">
<rect width="60" height="60" rx="30" fill="black" fill-opacity="0.01"/>
<path d="M23.2519 20.998C23.4508 20.998 23.6415 21.0771 23.7822 21.2177C23.9228 21.3583 24.0018 21.5491 24.0018 21.748V28.1427L34.9121 21.6125C35.1641 21.4592 35.4526 21.3765 35.7476 21.3728C36.0425 21.3692 36.333 21.4449 36.5887 21.5919C37.1512 21.9106 37.5008 22.5293 37.5008 23.201V36.7937C37.5008 37.4673 37.1512 38.0841 36.5887 38.4028C36.333 38.5498 36.0424 38.6253 35.7475 38.6216C35.4526 38.6179 35.1641 38.535 34.9121 38.3817L24.0018 31.8521V38.2467C24.0018 38.4456 23.9228 38.6364 23.7822 38.777C23.6415 38.9177 23.4508 38.9967 23.2519 38.9967C23.053 38.9967 22.8622 38.9177 22.7216 38.777C22.581 38.6364 22.502 38.4456 22.502 38.2467V21.748C22.502 21.5491 22.581 21.3583 22.7216 21.2177C22.8622 21.0771 23.053 20.998 23.2519 20.998Z" fill="white"/>
</svg>
