<svg width="60" height="60" viewBox="0 0 60 60" fill="none" xmlns="http://www.w3.org/2000/svg">
<rect width="60" height="60" rx="30" fill="black" fill-opacity="0.01"/>
<path d="M36.7481 20.998C36.5492 20.998 36.3585 21.0771 36.2178 21.2177C36.0772 21.3583 35.9982 21.5491 35.9982 21.748V28.1427L25.0879 21.6125C24.8359 21.4592 24.5474 21.3765 24.2524 21.3728C23.9575 21.3692 23.667 21.4449 23.4113 21.5919C22.8488 21.9106 22.4992 22.5293 22.4992 23.201V36.7937C22.4992 37.4673 22.8488 38.0841 23.4113 38.4028C23.667 38.5498 23.9576 38.6253 24.2525 38.6216C24.5474 38.6179 24.8359 38.535 25.0879 38.3817L35.9982 31.8521V38.2467C35.9982 38.4456 36.0772 38.6364 36.2178 38.777C36.3585 38.9177 36.5492 38.9967 36.7481 38.9967C36.947 38.9967 37.1378 38.9177 37.2784 38.777C37.419 38.6364 37.498 38.4456 37.498 38.2467V21.748C37.498 21.5491 37.419 21.3583 37.2784 21.2177C37.1378 21.0771 36.947 20.998 36.7481 20.998Z" fill="white"/>
</svg>
