<svg width="230" height="60" viewBox="0 0 230 60" fill="none" xmlns="http://www.w3.org/2000/svg">
<rect x="229.6" y="59.6" width="229.2" height="59.2" rx="29.6" transform="rotate(180 229.6 59.6)" stroke="url(#paint0_linear_65_739)" stroke-width="0.8"/>
<g clip-path="url(#clip0_65_739)">
<path d="M83.97 27.57C83.6993 27.0007 83.3073 26.562 82.794 26.254C82.2807 25.9367 81.6833 25.778 81.002 25.778C80.3207 25.778 79.7047 25.9367 79.154 26.254C78.6127 26.562 78.1833 27.01 77.866 27.598C77.558 28.1767 77.404 28.8487 77.404 29.614C77.404 30.3793 77.558 31.0513 77.866 31.63C78.1833 32.2087 78.6127 32.6567 79.154 32.974C79.7047 33.282 80.3207 33.436 81.002 33.436C81.954 33.436 82.738 33.1513 83.354 32.582C83.97 32.0127 84.3293 31.2427 84.432 30.272H80.54V29.236H85.79V30.216C85.7153 31.0187 85.4633 31.756 85.034 32.428C84.6047 33.0907 84.04 33.618 83.34 34.01C82.64 34.3927 81.8607 34.584 81.002 34.584C80.0967 34.584 79.2707 34.374 78.524 33.954C77.7773 33.5247 77.1847 32.932 76.746 32.176C76.3167 31.42 76.102 30.566 76.102 29.614C76.102 28.662 76.3167 27.808 76.746 27.052C77.1847 26.2867 77.7773 25.694 78.524 25.274C79.2707 24.8447 80.0967 24.63 81.002 24.63C82.038 24.63 82.9527 24.8867 83.746 25.4C84.5487 25.9133 85.132 26.6367 85.496 27.57H83.97ZM94.4745 30.37C94.4745 30.6127 94.4605 30.8693 94.4325 31.14H88.3005C88.3472 31.896 88.6038 32.4887 89.0705 32.918C89.5465 33.338 90.1205 33.548 90.7925 33.548C91.3432 33.548 91.8005 33.422 92.1645 33.17C92.5378 32.9087 92.7992 32.5633 92.9485 32.134H94.3205C94.1152 32.8713 93.7045 33.4733 93.0885 33.94C92.4725 34.3973 91.7072 34.626 90.7925 34.626C90.0645 34.626 89.4112 34.4627 88.8325 34.136C88.2632 33.8093 87.8152 33.3473 87.4885 32.75C87.1618 32.1433 86.9985 31.4433 86.9985 30.65C86.9985 29.8567 87.1572 29.1613 87.4745 28.564C87.7918 27.9667 88.2352 27.5093 88.8045 27.192C89.3832 26.8653 90.0458 26.702 90.7925 26.702C91.5205 26.702 92.1645 26.8607 92.7245 27.178C93.2845 27.4953 93.7138 27.934 94.0125 28.494C94.3205 29.0447 94.4745 29.67 94.4745 30.37ZM93.1585 30.104C93.1585 29.6187 93.0512 29.2033 92.8365 28.858C92.6218 28.5033 92.3278 28.2373 91.9545 28.06C91.5905 27.8733 91.1845 27.78 90.7365 27.78C90.0925 27.78 89.5418 27.9853 89.0845 28.396C88.6365 28.8067 88.3798 29.376 88.3145 30.104H93.1585ZM97.7101 27.878V32.4C97.7101 32.7733 97.7895 33.0393 97.9481 33.198C98.1068 33.3473 98.3821 33.422 98.7741 33.422H99.7121V34.5H98.5641C97.8548 34.5 97.3228 34.3367 96.9681 34.01C96.6135 33.6833 96.4361 33.1467 96.4361 32.4V27.878H95.4421V26.828H96.4361V24.896H97.7101V26.828H99.7121V27.878H97.7101ZM107.704 34.626C107.116 34.626 106.589 34.528 106.122 34.332C105.655 34.1267 105.287 33.8467 105.016 33.492C104.745 33.128 104.596 32.7127 104.568 32.246H105.884C105.921 32.6287 106.099 32.9413 106.416 33.184C106.743 33.4267 107.167 33.548 107.69 33.548C108.175 33.548 108.558 33.4407 108.838 33.226C109.118 33.0113 109.258 32.7407 109.258 32.414C109.258 32.078 109.109 31.8307 108.81 31.672C108.511 31.504 108.049 31.3407 107.424 31.182C106.855 31.0327 106.388 30.8833 106.024 30.734C105.669 30.5753 105.361 30.3467 105.1 30.048C104.848 29.74 104.722 29.3387 104.722 28.844C104.722 28.452 104.839 28.0927 105.072 27.766C105.305 27.4393 105.637 27.1827 106.066 26.996C106.495 26.8 106.985 26.702 107.536 26.702C108.385 26.702 109.071 26.9167 109.594 27.346C110.117 27.7753 110.397 28.3633 110.434 29.11H109.16C109.132 28.7087 108.969 28.3867 108.67 28.144C108.381 27.9013 107.989 27.78 107.494 27.78C107.037 27.78 106.673 27.878 106.402 28.074C106.131 28.27 105.996 28.5267 105.996 28.844C105.996 29.096 106.075 29.306 106.234 29.474C106.402 29.6327 106.607 29.7633 106.85 29.866C107.102 29.9593 107.447 30.0667 107.886 30.188C108.437 30.3373 108.885 30.4867 109.23 30.636C109.575 30.776 109.869 30.9907 110.112 31.28C110.364 31.5693 110.495 31.9473 110.504 32.414C110.504 32.834 110.387 33.212 110.154 33.548C109.921 33.884 109.589 34.15 109.16 34.346C108.74 34.5327 108.255 34.626 107.704 34.626ZM113.857 27.878V32.4C113.857 32.7733 113.936 33.0393 114.095 33.198C114.253 33.3473 114.529 33.422 114.921 33.422H115.859V34.5H114.711C114.001 34.5 113.469 34.3367 113.115 34.01C112.76 33.6833 112.583 33.1467 112.583 32.4V27.878H111.589V26.828H112.583V24.896H113.857V26.828H115.859V27.878H113.857ZM116.926 30.636C116.926 29.852 117.085 29.166 117.402 28.578C117.72 27.9807 118.154 27.5187 118.704 27.192C119.264 26.8653 119.885 26.702 120.566 26.702C121.238 26.702 121.822 26.8467 122.316 27.136C122.811 27.4253 123.18 27.7893 123.422 28.228V26.828H124.71V34.5H123.422V33.072C123.17 33.52 122.792 33.8933 122.288 34.192C121.794 34.4813 121.215 34.626 120.552 34.626C119.871 34.626 119.255 34.458 118.704 34.122C118.154 33.786 117.72 33.3147 117.402 32.708C117.085 32.1013 116.926 31.4107 116.926 30.636ZM123.422 30.65C123.422 30.0713 123.306 29.5673 123.072 29.138C122.839 28.7087 122.522 28.382 122.12 28.158C121.728 27.9247 121.294 27.808 120.818 27.808C120.342 27.808 119.908 27.92 119.516 28.144C119.124 28.368 118.812 28.6947 118.578 29.124C118.345 29.5533 118.228 30.0573 118.228 30.636C118.228 31.224 118.345 31.7373 118.578 32.176C118.812 32.6053 119.124 32.9367 119.516 33.17C119.908 33.394 120.342 33.506 120.818 33.506C121.294 33.506 121.728 33.394 122.12 33.17C122.522 32.9367 122.839 32.6053 123.072 32.176C123.306 31.7373 123.422 31.2287 123.422 30.65ZM128.137 28.074C128.361 27.6353 128.678 27.2947 129.089 27.052C129.509 26.8093 130.018 26.688 130.615 26.688V28.004H130.279C128.851 28.004 128.137 28.7787 128.137 30.328V34.5H126.863V26.828H128.137V28.074ZM133.64 27.878V32.4C133.64 32.7733 133.719 33.0393 133.878 33.198C134.036 33.3473 134.312 33.422 134.704 33.422H135.642V34.5H134.494C133.784 34.5 133.252 34.3367 132.898 34.01C132.543 33.6833 132.366 33.1467 132.366 32.4V27.878H131.372V26.828H132.366V24.896H133.64V26.828H135.642V27.878H133.64ZM144.185 30.37C144.185 30.6127 144.171 30.8693 144.143 31.14H138.011C138.058 31.896 138.315 32.4887 138.781 32.918C139.257 33.338 139.831 33.548 140.503 33.548C141.054 33.548 141.511 33.422 141.875 33.17C142.249 32.9087 142.51 32.5633 142.659 32.134H144.031C143.826 32.8713 143.415 33.4733 142.799 33.94C142.183 34.3973 141.418 34.626 140.503 34.626C139.775 34.626 139.122 34.4627 138.543 34.136C137.974 33.8093 137.526 33.3473 137.199 32.75C136.873 32.1433 136.709 31.4433 136.709 30.65C136.709 29.8567 136.868 29.1613 137.185 28.564C137.503 27.9667 137.946 27.5093 138.515 27.192C139.094 26.8653 139.757 26.702 140.503 26.702C141.231 26.702 141.875 26.8607 142.435 27.178C142.995 27.4953 143.425 27.934 143.723 28.494C144.031 29.0447 144.185 29.67 144.185 30.37ZM142.869 30.104C142.869 29.6187 142.762 29.2033 142.547 28.858C142.333 28.5033 142.039 28.2373 141.665 28.06C141.301 27.8733 140.895 27.78 140.447 27.78C139.803 27.78 139.253 27.9853 138.795 28.396C138.347 28.8067 138.091 29.376 138.025 30.104H142.869ZM145.391 30.636C145.391 29.852 145.55 29.166 145.867 28.578C146.184 27.9807 146.618 27.5187 147.169 27.192C147.729 26.8653 148.354 26.702 149.045 26.702C149.642 26.702 150.198 26.842 150.711 27.122C151.224 27.3927 151.616 27.752 151.887 28.2V24.14H153.175V34.5H151.887V33.058C151.635 33.5153 151.262 33.8933 150.767 34.192C150.272 34.4813 149.694 34.626 149.031 34.626C148.35 34.626 147.729 34.458 147.169 34.122C146.618 33.786 146.184 33.3147 145.867 32.708C145.55 32.1013 145.391 31.4107 145.391 30.636ZM151.887 30.65C151.887 30.0713 151.77 29.5673 151.537 29.138C151.304 28.7087 150.986 28.382 150.585 28.158C150.193 27.9247 149.759 27.808 149.283 27.808C148.807 27.808 148.373 27.92 147.981 28.144C147.589 28.368 147.276 28.6947 147.043 29.124C146.81 29.5533 146.693 30.0573 146.693 30.636C146.693 31.224 146.81 31.7373 147.043 32.176C147.276 32.6053 147.589 32.9367 147.981 33.17C148.373 33.394 148.807 33.506 149.283 33.506C149.759 33.506 150.193 33.394 150.585 33.17C150.986 32.9367 151.304 32.6053 151.537 32.176C151.77 31.7373 151.887 31.2287 151.887 30.65Z" fill="white"/>
<path d="M88.7544 56L81 60H115H116H150L142.246 56H116H115H88.7544Z" fill="white"/>
<g filter="url(#filter0_f_65_739)">
<path d="M45 69C45 64.0294 49.0294 60 54 60H176C180.971 60 185 64.0294 185 69H45Z" fill="white"/>
</g>
</g>
<rect x="0.4" y="0.4" width="229.2" height="59.2" rx="29.6" stroke="url(#paint1_linear_65_739)" stroke-width="0.8"/>
<defs>
<filter id="filter0_f_65_739" x="5" y="20" width="220" height="89" filterUnits="userSpaceOnUse" color-interpolation-filters="sRGB">
<feFlood flood-opacity="0" result="BackgroundImageFix"/>
<feBlend mode="normal" in="SourceGraphic" in2="BackgroundImageFix" result="shape"/>
<feGaussianBlur stdDeviation="20" result="effect1_foregroundBlur_65_739"/>
</filter>
<linearGradient id="paint0_linear_65_739" x1="420.44" y1="60" x2="414.022" y2="96.1671" gradientUnits="userSpaceOnUse">
<stop stop-color="white"/>
<stop offset="1" stop-color="white" stop-opacity="0"/>
</linearGradient>
<linearGradient id="paint1_linear_65_739" x1="190.44" y1="-2.30049e-06" x2="184.022" y2="36.1671" gradientUnits="userSpaceOnUse">
<stop stop-color="white"/>
<stop offset="1" stop-color="white" stop-opacity="0"/>
</linearGradient>
<clipPath id="clip0_65_739">
<rect width="230" height="60" rx="30" fill="white"/>
</clipPath>
</defs>
</svg>
