<svg width="448" height="143" viewBox="0 0 448 143" fill="none" xmlns="http://www.w3.org/2000/svg">
<foreignObject x="-20" y="-20" width="488" height="183"><div xmlns="http://www.w3.org/1999/xhtml" style="backdrop-filter:blur(10px);clip-path:url(#bgblur_0_65_712_clip_path);height:100%;width:100%"></div></foreignObject><g data-figma-bg-blur-radius="20">
<path d="M1.5 71.7889C1.5 58.3088 3.46191 46.3051 7.38573 35.7778C11.403 25.2506 17.1019 17.0984 24.4824 11.3212C31.8629 5.41563 40.5514 2.46286 50.5478 2.46286C59.1428 2.46286 66.8036 4.70954 73.5301 9.20289C80.3501 13.5679 85.8622 19.7944 90.0662 27.8824C94.3638 35.9704 97.2132 45.4065 98.6146 56.1905H65.8226C64.3278 51.6972 62.1791 48.2309 59.3764 45.7916C56.6671 43.224 53.5373 41.9402 49.9872 41.9402C44.7555 41.9402 40.5981 44.6362 37.5151 50.0282C34.5255 55.4202 33.0307 62.6738 33.0307 71.7889C33.0307 80.9039 34.5255 88.1575 37.5151 93.5495C40.5981 98.9415 44.7555 101.638 49.9872 101.638C53.5373 101.638 56.6671 100.418 59.3764 97.9787C62.1791 95.411 64.3278 91.8806 65.8226 87.3872H98.6146C97.2132 98.1712 94.3638 107.607 90.0662 115.695C85.8622 123.783 80.3501 130.074 73.5301 134.567C66.8036 138.932 59.1428 141.115 50.5478 141.115C40.5514 141.115 31.8629 138.226 24.4824 132.449C17.1019 126.544 11.403 118.327 7.38573 107.8C3.46191 97.2726 1.5 85.2689 1.5 71.7889Z" fill="url(#paint0_linear_65_712)"/>
<path d="M198.802 3.81087V140.152H167.692V87.0021H138.123V140.152H107.013V71.9814V3.81087H138.123V52.9168H167.692V3.81087H198.802Z" fill="url(#paint1_linear_65_712)"/>
<path d="M241.107 37.8961V54.6499H271.937V86.8095H241.107V106.067H276.141V140.152H209.997V3.81087H276.141V37.8961H241.107Z" fill="url(#paint2_linear_65_712)"/>
<path d="M323.881 141.5C312.016 141.5 302.206 137.713 294.452 130.138C286.791 122.435 282.634 111.202 281.98 96.4381H315.052C315.519 104.269 318.042 108.185 322.619 108.185C324.301 108.185 325.702 107.671 326.823 106.644C328.038 105.489 328.645 103.756 328.645 101.445C328.645 98.2354 327.384 95.6678 324.862 93.7421C322.339 91.688 318.415 89.3771 313.09 86.8095C306.737 83.7283 301.459 80.7114 297.255 77.7586C293.144 74.8058 289.594 70.505 286.604 64.8563C283.615 59.2075 282.167 51.9539 282.26 43.0956C282.26 34.2373 283.895 26.727 287.165 20.5646C290.528 14.274 295.059 9.52384 300.758 6.3143C306.55 3.10477 313.043 1.5 320.237 1.5C332.382 1.5 342.005 5.35144 349.105 13.0543C356.299 20.7572 360.083 31.6055 360.456 45.599H326.964C326.87 41.7476 326.17 38.9874 324.862 37.3184C323.554 35.6495 321.965 34.815 320.097 34.815C318.789 34.815 317.715 35.4569 316.874 36.7407C316.033 37.8962 315.613 39.5651 315.613 41.7476C315.613 44.8287 316.827 47.3964 319.256 49.4505C321.779 51.3762 325.749 53.7513 331.168 56.5756C337.427 59.7852 342.565 62.8663 346.583 65.8191C350.693 68.7719 354.244 72.8801 357.233 78.1437C360.223 83.4074 361.717 90.019 361.717 97.9787C361.717 106.323 360.223 113.834 357.233 120.51C354.244 127.057 349.899 132.192 344.2 135.915C338.502 139.638 331.728 141.5 323.881 141.5Z" fill="url(#paint3_linear_65_712)"/>
<path d="M408.663 141.5C396.798 141.5 386.989 137.713 379.234 130.138C371.574 122.435 367.416 111.202 366.762 96.4381H399.835C400.302 104.269 402.824 108.185 407.402 108.185C409.084 108.185 410.485 107.671 411.606 106.644C412.821 105.489 413.428 103.756 413.428 101.445C413.428 98.2354 412.167 95.6678 409.644 93.7421C407.122 91.688 403.198 89.3771 397.873 86.8095C391.52 83.7283 386.241 80.7114 382.037 77.7586C377.927 74.8058 374.376 70.505 371.387 64.8563C368.397 59.2075 366.949 51.9539 367.043 43.0956C367.043 34.2373 368.678 26.727 371.947 20.5646C375.311 14.274 379.842 9.52384 385.541 6.3143C391.333 3.10477 397.826 1.5 405.02 1.5C417.165 1.5 426.787 5.35144 433.888 13.0543C441.081 20.7572 444.865 31.6055 445.239 45.599H411.746C411.653 41.7476 410.952 38.9874 409.644 37.3184C408.336 35.6495 406.748 34.815 404.879 34.815C403.572 34.815 402.497 35.4569 401.656 36.7407C400.816 37.8962 400.395 39.5651 400.395 41.7476C400.395 44.8287 401.61 47.3964 404.039 49.4505C406.561 51.3762 410.532 53.7513 415.95 56.5756C422.21 59.7852 427.348 62.8663 431.365 65.8191C435.476 68.7719 439.026 72.8801 442.016 78.1437C445.005 83.4074 446.5 90.019 446.5 97.9787C446.5 106.323 445.005 113.834 442.016 120.51C439.026 127.057 434.682 132.192 428.983 135.915C423.284 139.638 416.511 141.5 408.663 141.5Z" fill="url(#paint4_linear_65_712)"/>
<path d="M1.5 71.7889C1.5 58.3088 3.46191 46.3051 7.38573 35.7778C11.403 25.2506 17.1019 17.0984 24.4824 11.3212C31.8629 5.41563 40.5514 2.46286 50.5478 2.46286C59.1428 2.46286 66.8036 4.70954 73.5301 9.20289C80.3501 13.5679 85.8622 19.7944 90.0662 27.8824C94.3638 35.9704 97.2132 45.4065 98.6146 56.1905H65.8226C64.3278 51.6972 62.1791 48.2309 59.3764 45.7916C56.6671 43.224 53.5373 41.9402 49.9872 41.9402C44.7555 41.9402 40.5981 44.6362 37.5151 50.0282C34.5255 55.4202 33.0307 62.6738 33.0307 71.7889C33.0307 80.9039 34.5255 88.1575 37.5151 93.5495C40.5981 98.9415 44.7555 101.638 49.9872 101.638C53.5373 101.638 56.6671 100.418 59.3764 97.9787C62.1791 95.411 64.3278 91.8806 65.8226 87.3872H98.6146C97.2132 98.1712 94.3638 107.607 90.0662 115.695C85.8622 123.783 80.3501 130.074 73.5301 134.567C66.8036 138.932 59.1428 141.115 50.5478 141.115C40.5514 141.115 31.8629 138.226 24.4824 132.449C17.1019 126.544 11.403 118.327 7.38573 107.8C3.46191 97.2726 1.5 85.2689 1.5 71.7889Z" stroke="url(#paint5_linear_65_712)" stroke-width="3"/>
<path d="M198.802 3.81087V140.152H167.692V87.0021H138.123V140.152H107.013V71.9814V3.81087H138.123V52.9168H167.692V3.81087H198.802Z" stroke="url(#paint6_linear_65_712)" stroke-width="3"/>
<path d="M241.107 37.8961V54.6499H271.937V86.8095H241.107V106.067H276.141V140.152H209.997V3.81087H276.141V37.8961H241.107Z" stroke="url(#paint7_linear_65_712)" stroke-width="3"/>
<path d="M323.881 141.5C312.016 141.5 302.206 137.713 294.452 130.138C286.791 122.435 282.634 111.202 281.98 96.4381H315.052C315.519 104.269 318.042 108.185 322.619 108.185C324.301 108.185 325.702 107.671 326.823 106.644C328.038 105.489 328.645 103.756 328.645 101.445C328.645 98.2354 327.384 95.6678 324.862 93.7421C322.339 91.688 318.415 89.3771 313.09 86.8095C306.737 83.7283 301.459 80.7114 297.255 77.7586C293.144 74.8058 289.594 70.505 286.604 64.8563C283.615 59.2075 282.167 51.9539 282.26 43.0956C282.26 34.2373 283.895 26.727 287.165 20.5646C290.528 14.274 295.059 9.52384 300.758 6.3143C306.55 3.10477 313.043 1.5 320.237 1.5C332.382 1.5 342.005 5.35144 349.105 13.0543C356.299 20.7572 360.083 31.6055 360.456 45.599H326.964C326.87 41.7476 326.17 38.9874 324.862 37.3184C323.554 35.6495 321.965 34.815 320.097 34.815C318.789 34.815 317.715 35.4569 316.874 36.7407C316.033 37.8962 315.613 39.5651 315.613 41.7476C315.613 44.8287 316.827 47.3964 319.256 49.4505C321.779 51.3762 325.749 53.7513 331.168 56.5756C337.427 59.7852 342.565 62.8663 346.583 65.8191C350.693 68.7719 354.244 72.8801 357.233 78.1437C360.223 83.4074 361.717 90.019 361.717 97.9787C361.717 106.323 360.223 113.834 357.233 120.51C354.244 127.057 349.899 132.192 344.2 135.915C338.502 139.638 331.728 141.5 323.881 141.5Z" stroke="url(#paint8_linear_65_712)" stroke-width="3"/>
<path d="M408.663 141.5C396.798 141.5 386.989 137.713 379.234 130.138C371.574 122.435 367.416 111.202 366.762 96.4381H399.835C400.302 104.269 402.824 108.185 407.402 108.185C409.084 108.185 410.485 107.671 411.606 106.644C412.821 105.489 413.428 103.756 413.428 101.445C413.428 98.2354 412.167 95.6678 409.644 93.7421C407.122 91.688 403.198 89.3771 397.873 86.8095C391.52 83.7283 386.241 80.7114 382.037 77.7586C377.927 74.8058 374.376 70.505 371.387 64.8563C368.397 59.2075 366.949 51.9539 367.043 43.0956C367.043 34.2373 368.678 26.727 371.947 20.5646C375.311 14.274 379.842 9.52384 385.541 6.3143C391.333 3.10477 397.826 1.5 405.02 1.5C417.165 1.5 426.787 5.35144 433.888 13.0543C441.081 20.7572 444.865 31.6055 445.239 45.599H411.746C411.653 41.7476 410.952 38.9874 409.644 37.3184C408.336 35.6495 406.748 34.815 404.879 34.815C403.572 34.815 402.497 35.4569 401.656 36.7407C400.816 37.8962 400.395 39.5651 400.395 41.7476C400.395 44.8287 401.61 47.3964 404.039 49.4505C406.561 51.3762 410.532 53.7513 415.95 56.5756C422.21 59.7852 427.348 62.8663 431.365 65.8191C435.476 68.7719 439.026 72.8801 442.016 78.1437C445.005 83.4074 446.5 90.019 446.5 97.9787C446.5 106.323 445.005 113.834 442.016 120.51C439.026 127.057 434.682 132.192 428.983 135.915C423.284 139.638 416.511 141.5 408.663 141.5Z" stroke="url(#paint9_linear_65_712)" stroke-width="3"/>
</g>
<defs>
<clipPath id="bgblur_0_65_712_clip_path" transform="translate(20 20)"><path d="M1.5 71.7889C1.5 58.3088 3.46191 46.3051 7.38573 35.7778C11.403 25.2506 17.1019 17.0984 24.4824 11.3212C31.8629 5.41563 40.5514 2.46286 50.5478 2.46286C59.1428 2.46286 66.8036 4.70954 73.5301 9.20289C80.3501 13.5679 85.8622 19.7944 90.0662 27.8824C94.3638 35.9704 97.2132 45.4065 98.6146 56.1905H65.8226C64.3278 51.6972 62.1791 48.2309 59.3764 45.7916C56.6671 43.224 53.5373 41.9402 49.9872 41.9402C44.7555 41.9402 40.5981 44.6362 37.5151 50.0282C34.5255 55.4202 33.0307 62.6738 33.0307 71.7889C33.0307 80.9039 34.5255 88.1575 37.5151 93.5495C40.5981 98.9415 44.7555 101.638 49.9872 101.638C53.5373 101.638 56.6671 100.418 59.3764 97.9787C62.1791 95.411 64.3278 91.8806 65.8226 87.3872H98.6146C97.2132 98.1712 94.3638 107.607 90.0662 115.695C85.8622 123.783 80.3501 130.074 73.5301 134.567C66.8036 138.932 59.1428 141.115 50.5478 141.115C40.5514 141.115 31.8629 138.226 24.4824 132.449C17.1019 126.544 11.403 118.327 7.38573 107.8C3.46191 97.2726 1.5 85.2689 1.5 71.7889Z"/>
<path d="M198.802 3.81087V140.152H167.692V87.0021H138.123V140.152H107.013V71.9814V3.81087H138.123V52.9168H167.692V3.81087H198.802Z"/>
<path d="M241.107 37.8961V54.6499H271.937V86.8095H241.107V106.067H276.141V140.152H209.997V3.81087H276.141V37.8961H241.107Z"/>
<path d="M323.881 141.5C312.016 141.5 302.206 137.713 294.452 130.138C286.791 122.435 282.634 111.202 281.98 96.4381H315.052C315.519 104.269 318.042 108.185 322.619 108.185C324.301 108.185 325.702 107.671 326.823 106.644C328.038 105.489 328.645 103.756 328.645 101.445C328.645 98.2354 327.384 95.6678 324.862 93.7421C322.339 91.688 318.415 89.3771 313.09 86.8095C306.737 83.7283 301.459 80.7114 297.255 77.7586C293.144 74.8058 289.594 70.505 286.604 64.8563C283.615 59.2075 282.167 51.9539 282.26 43.0956C282.26 34.2373 283.895 26.727 287.165 20.5646C290.528 14.274 295.059 9.52384 300.758 6.3143C306.55 3.10477 313.043 1.5 320.237 1.5C332.382 1.5 342.005 5.35144 349.105 13.0543C356.299 20.7572 360.083 31.6055 360.456 45.599H326.964C326.87 41.7476 326.17 38.9874 324.862 37.3184C323.554 35.6495 321.965 34.815 320.097 34.815C318.789 34.815 317.715 35.4569 316.874 36.7407C316.033 37.8962 315.613 39.5651 315.613 41.7476C315.613 44.8287 316.827 47.3964 319.256 49.4505C321.779 51.3762 325.749 53.7513 331.168 56.5756C337.427 59.7852 342.565 62.8663 346.583 65.8191C350.693 68.7719 354.244 72.8801 357.233 78.1437C360.223 83.4074 361.717 90.019 361.717 97.9787C361.717 106.323 360.223 113.834 357.233 120.51C354.244 127.057 349.899 132.192 344.2 135.915C338.502 139.638 331.728 141.5 323.881 141.5Z"/>
<path d="M408.663 141.5C396.798 141.5 386.989 137.713 379.234 130.138C371.574 122.435 367.416 111.202 366.762 96.4381H399.835C400.302 104.269 402.824 108.185 407.402 108.185C409.084 108.185 410.485 107.671 411.606 106.644C412.821 105.489 413.428 103.756 413.428 101.445C413.428 98.2354 412.167 95.6678 409.644 93.7421C407.122 91.688 403.198 89.3771 397.873 86.8095C391.52 83.7283 386.241 80.7114 382.037 77.7586C377.927 74.8058 374.376 70.505 371.387 64.8563C368.397 59.2075 366.949 51.9539 367.043 43.0956C367.043 34.2373 368.678 26.727 371.947 20.5646C375.311 14.274 379.842 9.52384 385.541 6.3143C391.333 3.10477 397.826 1.5 405.02 1.5C417.165 1.5 426.787 5.35144 433.888 13.0543C441.081 20.7572 444.865 31.6055 445.239 45.599H411.746C411.653 41.7476 410.952 38.9874 409.644 37.3184C408.336 35.6495 406.748 34.815 404.879 34.815C403.572 34.815 402.497 35.4569 401.656 36.7407C400.816 37.8962 400.395 39.5651 400.395 41.7476C400.395 44.8287 401.61 47.3964 404.039 49.4505C406.561 51.3762 410.532 53.7513 415.95 56.5756C422.21 59.7852 427.348 62.8663 431.365 65.8191C435.476 68.7719 439.026 72.8801 442.016 78.1437C445.005 83.4074 446.5 90.019 446.5 97.9787C446.5 106.323 445.005 113.834 442.016 120.51C439.026 127.057 434.682 132.192 428.983 135.915C423.284 139.638 416.511 141.5 408.663 141.5Z"/>
</clipPath><linearGradient id="paint0_linear_65_712" x1="223.5" y1="141.5" x2="223.5" y2="1.5" gradientUnits="userSpaceOnUse">
<stop stop-color="white" stop-opacity="0"/>
<stop offset="1" stop-color="white" stop-opacity="0.5"/>
</linearGradient>
<linearGradient id="paint1_linear_65_712" x1="223.5" y1="141.5" x2="223.5" y2="1.5" gradientUnits="userSpaceOnUse">
<stop stop-color="white" stop-opacity="0"/>
<stop offset="1" stop-color="white" stop-opacity="0.5"/>
</linearGradient>
<linearGradient id="paint2_linear_65_712" x1="223.5" y1="141.5" x2="223.5" y2="1.5" gradientUnits="userSpaceOnUse">
<stop stop-color="white" stop-opacity="0"/>
<stop offset="1" stop-color="white" stop-opacity="0.5"/>
</linearGradient>
<linearGradient id="paint3_linear_65_712" x1="223.5" y1="141.5" x2="223.5" y2="1.5" gradientUnits="userSpaceOnUse">
<stop stop-color="white" stop-opacity="0"/>
<stop offset="1" stop-color="white" stop-opacity="0.5"/>
</linearGradient>
<linearGradient id="paint4_linear_65_712" x1="223.5" y1="141.5" x2="223.5" y2="1.5" gradientUnits="userSpaceOnUse">
<stop stop-color="white" stop-opacity="0"/>
<stop offset="1" stop-color="white" stop-opacity="0.5"/>
</linearGradient>
<linearGradient id="paint5_linear_65_712" x1="223.5" y1="141.5" x2="223.5" y2="1.5" gradientUnits="userSpaceOnUse">
<stop stop-color="white"/>
<stop offset="1" stop-color="white" stop-opacity="0"/>
</linearGradient>
<linearGradient id="paint6_linear_65_712" x1="223.5" y1="141.5" x2="223.5" y2="1.5" gradientUnits="userSpaceOnUse">
<stop stop-color="white"/>
<stop offset="1" stop-color="white" stop-opacity="0"/>
</linearGradient>
<linearGradient id="paint7_linear_65_712" x1="223.5" y1="141.5" x2="223.5" y2="1.5" gradientUnits="userSpaceOnUse">
<stop stop-color="white"/>
<stop offset="1" stop-color="white" stop-opacity="0"/>
</linearGradient>
<linearGradient id="paint8_linear_65_712" x1="223.5" y1="141.5" x2="223.5" y2="1.5" gradientUnits="userSpaceOnUse">
<stop stop-color="white"/>
<stop offset="1" stop-color="white" stop-opacity="0"/>
</linearGradient>
<linearGradient id="paint9_linear_65_712" x1="223.5" y1="141.5" x2="223.5" y2="1.5" gradientUnits="userSpaceOnUse">
<stop stop-color="white"/>
<stop offset="1" stop-color="white" stop-opacity="0"/>
</linearGradient>
</defs>
</svg>
