<svg width="60" height="60" viewBox="0 0 60 60" fill="none" xmlns="http://www.w3.org/2000/svg">
<rect x="59.6" y="59.6" width="59.2" height="59.2" rx="29.6" transform="rotate(180 59.6 59.6)" stroke="url(#paint0_linear_65_746)" stroke-width="0.8"/>
<rect x="0.4" y="0.4" width="59.2" height="59.2" rx="29.6" stroke="url(#paint1_linear_65_746)" stroke-width="0.8"/>
<path d="M37.2701 23.33C35.9401 22.71 34.5001 22.26 33.0001 22C32.9737 22.0004 32.9486 22.0112 32.9301 22.03C32.7501 22.36 32.5401 22.79 32.4001 23.12C30.8091 22.8802 29.1911 22.8802 27.6001 23.12C27.4601 22.78 27.2501 22.36 27.0601 22.03C27.0501 22.01 27.0201 22 26.9901 22C25.4901 22.26 24.0601 22.71 22.7201 23.33C22.7101 23.33 22.7001 23.34 22.6901 23.35C19.9701 27.42 19.2201 31.38 19.5901 35.3C19.5901 35.32 19.6001 35.34 19.6201 35.35C21.4201 36.67 23.1501 37.47 24.8601 38C24.8901 38.01 24.9201 38 24.9301 37.98C25.3301 37.43 25.6901 36.85 26.0001 36.24C26.0201 36.2 26.0001 36.16 25.9601 36.15C25.3901 35.93 24.8501 35.67 24.3201 35.37C24.2801 35.35 24.2801 35.29 24.3101 35.26C24.4201 35.18 24.5301 35.09 24.6401 35.01C24.6601 34.99 24.6901 34.99 24.7101 35C28.1501 36.57 31.8601 36.57 35.2601 35C35.2801 34.99 35.3101 34.99 35.3301 35.01C35.4401 35.1 35.5501 35.18 35.6601 35.27C35.7001 35.3 35.7001 35.36 35.6501 35.38C35.1301 35.69 34.5801 35.94 34.0101 36.16C33.9701 36.17 33.9601 36.22 33.9701 36.25C34.2901 36.86 34.6501 37.44 35.0401 37.99C35.0701 38 35.1001 38.01 35.1301 38C36.8501 37.47 38.5801 36.67 40.3801 35.35C40.4001 35.34 40.4101 35.32 40.4101 35.3C40.8501 30.77 39.6801 26.84 37.3101 23.35C37.3001 23.34 37.2901 23.33 37.2701 23.33ZM26.5201 32.91C25.4901 32.91 24.6301 31.96 24.6301 30.79C24.6301 29.62 25.4701 28.67 26.5201 28.67C27.5801 28.67 28.4201 29.63 28.4101 30.79C28.4101 31.96 27.5701 32.91 26.5201 32.91ZM33.4901 32.91C32.4601 32.91 31.6001 31.96 31.6001 30.79C31.6001 29.62 32.4401 28.67 33.4901 28.67C34.5501 28.67 35.3901 29.63 35.3801 30.79C35.3801 31.96 34.5501 32.91 33.4901 32.91Z" fill="white"/>
<rect x="0.4" y="0.4" width="59.2" height="59.2" rx="29.6" stroke="url(#paint2_linear_65_746)" stroke-width="0.8"/>
<path d="M37.2701 23.33C35.9401 22.71 34.5001 22.26 33.0001 22C32.9737 22.0004 32.9486 22.0112 32.9301 22.03C32.7501 22.36 32.5401 22.79 32.4001 23.12C30.8091 22.8802 29.1911 22.8802 27.6001 23.12C27.4601 22.78 27.2501 22.36 27.0601 22.03C27.0501 22.01 27.0201 22 26.9901 22C25.4901 22.26 24.0601 22.71 22.7201 23.33C22.7101 23.33 22.7001 23.34 22.6901 23.35C19.9701 27.42 19.2201 31.38 19.5901 35.3C19.5901 35.32 19.6001 35.34 19.6201 35.35C21.4201 36.67 23.1501 37.47 24.8601 38C24.8901 38.01 24.9201 38 24.9301 37.98C25.3301 37.43 25.6901 36.85 26.0001 36.24C26.0201 36.2 26.0001 36.16 25.9601 36.15C25.3901 35.93 24.8501 35.67 24.3201 35.37C24.2801 35.35 24.2801 35.29 24.3101 35.26C24.4201 35.18 24.5301 35.09 24.6401 35.01C24.6601 34.99 24.6901 34.99 24.7101 35C28.1501 36.57 31.8601 36.57 35.2601 35C35.2801 34.99 35.3101 34.99 35.3301 35.01C35.4401 35.1 35.5501 35.18 35.6601 35.27C35.7001 35.3 35.7001 35.36 35.6501 35.38C35.1301 35.69 34.5801 35.94 34.0101 36.16C33.9701 36.17 33.9601 36.22 33.9701 36.25C34.2901 36.86 34.6501 37.44 35.0401 37.99C35.0701 38 35.1001 38.01 35.1301 38C36.8501 37.47 38.5801 36.67 40.3801 35.35C40.4001 35.34 40.4101 35.32 40.4101 35.3C40.8501 30.77 39.6801 26.84 37.3101 23.35C37.3001 23.34 37.2901 23.33 37.2701 23.33ZM26.5201 32.91C25.4901 32.91 24.6301 31.96 24.6301 30.79C24.6301 29.62 25.4701 28.67 26.5201 28.67C27.5801 28.67 28.4201 29.63 28.4101 30.79C28.4101 31.96 27.5701 32.91 26.5201 32.91ZM33.4901 32.91C32.4601 32.91 31.6001 31.96 31.6001 30.79C31.6001 29.62 32.4401 28.67 33.4901 28.67C34.5501 28.67 35.3901 29.63 35.3801 30.79C35.3801 31.96 34.5501 32.91 33.4901 32.91Z" fill="white"/>
<defs>
<linearGradient id="paint0_linear_65_746" x1="109.68" y1="60" x2="92.3305" y2="85.5038" gradientUnits="userSpaceOnUse">
<stop stop-color="white"/>
<stop offset="1" stop-color="white" stop-opacity="0"/>
</linearGradient>
<linearGradient id="paint1_linear_65_746" x1="49.68" y1="-2.30049e-06" x2="32.3305" y2="25.5038" gradientUnits="userSpaceOnUse">
<stop stop-color="white"/>
<stop offset="1" stop-color="white" stop-opacity="0"/>
</linearGradient>
<linearGradient id="paint2_linear_65_746" x1="49.68" y1="-2.30049e-06" x2="32.3305" y2="25.5038" gradientUnits="userSpaceOnUse">
<stop stop-color="white"/>
<stop offset="1" stop-color="white" stop-opacity="0"/>
</linearGradient>
</defs>
</svg>
